<?xml version="1.0" encoding="UTF-8"?>
<svg id="Layer_2" data-name="Layer 2" xmlns="http://www.w3.org/2000/svg" viewBox="0 0 645.2 606.99">
  <defs>
    <style>
      .cls-1 {
        fill: #000;
      }

      .cls-1, .cls-2, .cls-3, .cls-4 {
        stroke-width: 0px;
      }

      .cls-2 {
        fill: #7cc951;
      }

      .cls-3 {
        fill: #707c88;
      }

      .cls-4 {
        fill: #063225;
      }

      .cls-5 {
        stroke-width: 5px;
      }

      .cls-5, .cls-6 {
        fill: none;
        stroke: #000;
        stroke-miterlimit: 10;
      }

      .cls-6 {
        stroke-width: 3px;
      }
    </style>
  </defs>
  <g id="personbody">
    <g>
      <g>
        <path class="cls-2" d="M625.82,406.43c-2.13,70.07-13.77,141.63-20.11,176.14,9.77-27.39,22.81-82.28,20.11-176.14Z"/>
        <path class="cls-2" d="M43.6,603.74s-15.2-65.3-21.95-144.06c1.24,51.26,7.02,103.85,21.95,144.06Z"/>
        <path class="cls-2" d="M373.01,18.04s-.52.12-1.5.31h1.5s0-.31,0-.31Z"/>
        <path class="cls-2" d="M410.54,2.5c-2.19-.24-4.23-.26-6.16-.15,3.69.24,7.99.73,13.04,1.64-2.01-.68-4.28-1.2-6.88-1.49Z"/>
        <path class="cls-2" d="M304.7,90.46c.54,1.65-.44,4.4-2.29,7.46l3.72-4.78-1.43-2.67Z"/>
        <path class="cls-2" d="M342.68,86.9c6.12-10.75,32.8-56.17,41.32-74.85-2.17,2.39-3.63,4.73-4.5,6.35h.71s-37.52,68.51-37.52,68.51Z"/>
        <path class="cls-2" d="M551.08,317c13.24-.95,29.57-12.69,41.92-23.43-20.97,14.12-41.92,23.43-41.92,23.43Z"/>
        <path class="cls-2" d="M8.15,209.75c-3.38,2.06-8.5,11.89,11.77,46.23-10.81-26.14-12.33-39.6-11.77-46.23Z"/>
        <path class="cls-2" d="M94.12,317s-9.16-2.75-21.28-8.95c8.69,5.73,16.65,9.69,21.28,8.95Z"/>
        <path class="cls-2" d="M615.87,289.18c-.53-3.99-1.1-8.03-1.67-12.1-.54.5-1.08,1-1.63,1.49,1.18,3.43,2.29,6.95,3.3,10.62Z"/>
        <path class="cls-2" d="M398.72,598.6c135.79-24.69,152.36-281.6,152.36-281.6l2.06-19.38c24.8,1.47,81.36-90.02,81.36-90.02,0,0,7,2.14,0,38.81,5.76-11.26,9.5-27.16,5.82-48.85,0,0-8.26-58.47-130.07-131.17,0,0-27.4-28.23-78.72-39.15,0,0,1.02-7.12-2.51-13.76.34,6.98-6.74,14.98-6.74,14.98-5.25,18.3-60.59,84.57-64.09,86.84-3.5,2.26-17.07-24.89-16.76-26.11l-.98,1.79,2.35,8.21-28.67,20.01-22.2-7.82,4.19-5.39c-5.15,5.4-11.23,9.5-14.22,7.45-5.78-3.96-52.65-68.48-64.17-91.08l2.26,6.09s-50.25,8.2-77.72,33.01c0,0-146.8,107.11-139.53,132.2,0,0,3.18,11.34,5.53,15.05.49-3.76,1.66-4.88,1.66-4.88v2.44s65.05,94.53,78.79,92.2c13.75-2.33,5.41,18.52,5.41,18.52,0,0,1.08,244.93,153.87,281.78l-204.38,4.96,552.1,1.03s.25-.38.7-1.14c-32.02-.69-201.34-4.37-197.68-5.03Z"/>
        <path class="cls-2" d="M303.61,89.18c.3.15.53.36.72.6l-25.75-47.99c9.86,21.62,21.43,45.61,25.03,47.39Z"/>
        <path class="cls-2" d="M218.8,9.44c-3.15,1.14-5.13,1.99-5.13,1.99l1.5,4.05h0c.1-2.15,1.46-4.2,3.63-6.04Z"/>
        <path class="cls-2" d="M269.91,17.86c-1.08-2-2.65-4.27-4.83-6.44.75,1.74,1.7,3.91,2.81,6.43h2.03Z"/>
        <path class="cls-2" d="M272.19,15.69v2.18l6.4.03c-2.18-.67-4.32-1.39-6.4-2.21Z"/>
        <path class="cls-3" d="M94.12,317c-4.63.74-12.59-3.22-21.28-8.95-12.66-6.48-28.54-16.76-40.59-31.61-15.96,53.06-15.83,122.18-10.6,183.24,6.75,78.75,21.95,144.06,21.95,144.06l204.38-4.96c-152.79-36.85-153.87-281.78-153.87-281.78Z"/>
        <path class="cls-3" d="M593,293.57c-12.35,10.74-28.69,22.48-41.92,23.43,0,0-16.56,256.91-152.36,281.6-3.67.67,165.65,4.34,197.68,5.03,3.34.07,5.19.11,5.19.11,0,0,1.66-7.81,4.12-21.18,6.34-34.5,17.98-106.06,20.11-176.14,1.29-42.51-.92-84.45-9.95-117.25-1.01-3.67-2.12-7.19-3.3-10.62-6.06,5.4-12.81,10.45-19.56,15Z"/>
        <path class="cls-3" d="M278.58,41.79l25.75,47.99c.16.2.28.43.37.68l1.43,2.67-3.72,4.78c-1.6,2.65-3.84,5.51-6.29,8.08l-4.19,5.39,22.2,7.82,28.67-20.01-2.35-8.21.98-1.79h0c.03-.11.48-.92,1.26-2.3l37.52-68.5h-.71s-6.49-.03-6.49-.03h-1.5s-92.92-.46-92.92-.46l-6.4-.03h-2.28s-2.03-.02-2.03-.02c2.81,6.4,6.6,14.96,10.7,23.94Z"/>
        <path class="cls-4" d="M72.84,308.05c12.12,6.2,21.28,8.95,21.28,8.95,0,0,8.33-20.85-5.41-18.52-13.75,2.33-78.79-92.2-78.79-92.2v-2.44s-1.17,1.13-1.66,4.88c-.04.32-.08.67-.11,1.03-.56,6.63.96,20.09,11.77,46.23,0,.02.01.03.02.05,3.15,7.61,7.42,14.38,12.31,20.41,12.04,14.85,27.92,25.13,40.59,31.61Z"/>
        <path class="cls-4" d="M281.9,113.45c2.99,2.05,9.07-2.05,14.22-7.45,2.45-2.57,4.69-5.43,6.29-8.08,1.85-3.06,2.83-5.8,2.29-7.46-.08-.26-.21-.48-.37-.68-.19-.24-.41-.45-.72-.6-3.6-1.78-15.17-25.76-25.03-47.39-4.1-8.99-7.89-17.54-10.7-23.94-1.1-2.52-2.05-4.69-2.81-6.43-1.23-2.84-1.96-4.54-1.96-4.54,0,0-.19-.83-11.57-4.61-8.79-2.92-25.42.93-32.76,7.17-2.16,1.84-3.52,3.89-3.63,6.04h0c-.06,1.2.88,3.61,2.55,6.89,11.52,22.6,58.39,87.12,64.17,91.08Z"/>
        <path class="cls-4" d="M341.42,89.19h0c-.31,1.21,13.26,28.37,16.76,26.11,3.5-2.26,58.83-68.54,64.09-86.84,0,0,7.08-7.99,6.74-14.98-.2-4.16-3.03-7.96-11.56-9.5-.01,0-.02,0-.03,0-5.05-.91-9.35-1.4-13.04-1.64-12.98-.83-18.01,1.64-18.01,1.64.75.37-.25,3.38-2.38,8.05-8.51,18.69-35.2,64.1-41.32,74.85-.78,1.37-1.23,2.18-1.26,2.3Z"/>
        <path class="cls-4" d="M634.5,246.42s0,0,0,0c7-36.68,0-38.81,0-38.81,0,0-56.56,91.49-81.36,90.02l-2.06,19.38s20.96-9.31,41.92-23.43c6.76-4.55,13.5-9.6,19.56-15,.55-.49,1.09-.99,1.63-1.49,10.26-9.47,18.26-19.94,20.3-30.66Z"/>
      </g>
      <g>
        <g>
          <g>
            <path class="cls-5" d="M463.81,36.64s154.82,91.32,178.65,157.04c0,0-46.28,87.01-91.39,104.81"/>
            <path class="cls-5" d="M637.49,203.84s4.42-.16,2.21,20.5c-2.21,20.65-39.39,80.42-88.63,92.66"/>
          </g>
          <g>
            <path class="cls-5" d="M181.38,36.64S26.56,127.96,2.73,193.67c0,0,46.28,87.01,91.39,104.81"/>
            <path class="cls-5" d="M7.7,203.84s-4.42-.16-2.21,20.5c2.21,20.65,39.39,80.42,88.63,92.66"/>
          </g>
        </g>
        <g>
          <path class="cls-5" d="M291.93,604.49l-248.32-.74c-37.37-128.67-17.66-332.41-11.52-334.23"/>
          <path class="cls-5" d="M353.27,603.74h248.32c37.37-128.67,17.66-332.41,11.52-334.23"/>
        </g>
        <g>
          <path class="cls-5" d="M268.15,24.25c11.3,27.7,37.98,68.89,37.98,68.89,0,0-11.97,22-21.84,21.38-.62-.04-1.4-.45-2.39-1.07-11.27-7-48.54-60.14-62.7-86.41-101.95,15.94-113.62,100.1-122.73,244.13-10.35,163.51,50.58,333.31,195.46,333.31l61.35-.74c144.88,0,205.81-169.8,195.46-333.31-9.11-143.86-20.76-227.99-122.37-244.07-13.87,26.03-51.69,80.04-63.06,87.1-1,.62-1.78,1.03-2.39,1.07-9.87.61-21.84-21.38-21.84-21.38,0,0,27.13-41.88,38.26-69.57"/>
          <path class="cls-5" d="M219.98,28.46l-6.22-13.82c-1.48-7.92,14.95-10.97,29.27-12.08,10.17-.79,19.41,5.61,22.69,15.27l2.42,6.41"/>
          <path class="cls-5" d="M425.22,28.46l6.21-13.82c1.48-7.92-14.95-10.97-29.27-12.08-10.17-.79-19.41,5.61-22.69,15.27l-2.14,5.73"/>
        </g>
        <path class="cls-6" d="M342.79,99.2s-37.69,23.46-36.66,29.45,12.64,150.89,8.9,159.71"/>
        <ellipse class="cls-1" cx="344.2" cy="162.42" rx="10.29" ry="15.43"/>
        <ellipse class="cls-1" cx="344.2" cy="240.6" rx="10.29" ry="15.43"/>
        <line class="cls-6" x1="291.93" y1="111.39" x2="318.48" y2="119.21"/>
      </g>
      <line class="cls-5" x1="265.73" y1="17.84" x2="379.47" y2="17.84"/>
    </g>
  </g>
</svg>