<?xml version="1.0" encoding="UTF-8"?>
<svg id="Layer_2" data-name="Layer 2" xmlns="http://www.w3.org/2000/svg" viewBox="0 0 260 140">
  <defs>
    <style>
      .cls-1 {
        fill: #faf7f8;
      }

      .cls-1, .cls-2, .cls-3 {
        stroke-width: 0px;
      }

      .cls-2 {
        fill: #707c88;
      }

      .cls-4 {
        stroke: #eda72d;
      }

      .cls-4, .cls-5, .cls-6, .cls-7 {
        fill: none;
        stroke-miterlimit: 10;
      }

      .cls-4, .cls-6 {
        stroke-width: 5px;
      }

      .cls-5 {
        stroke: #faf7f8;
      }

      .cls-5, .cls-7 {
        stroke-width: 3px;
      }

      .cls-6, .cls-7 {
        stroke: #000;
      }

      .cls-3 {
        fill: #d00000;
      }
    </style>
  </defs>
  <g id="robothead">
    <g>
      <g>
        <path class="cls-3" d="M229.38,2h-93.38v48h-13V2H29.62C13.26,2,0,15.26,0,31.62v76.77c0,16.36,13.26,29.62,29.62,29.62h199.77c16.36,0,29.62-13.26,29.62-29.62V31.62c0-16.36-13.26-29.62-29.62-29.62ZM198.97,112c-9.17,2-141.97-1-141.97-1v-17s140.07-6,143.03-2.5c2.96,3.5,8.11,18.5-1.06,20.5ZM196,72c-7.45,0-13.89-4.19-17-10.27v.27h-97v-10c0,9.94-8.06,18-18,18s-18-8.06-18-18,8.06-18,18-18,18,8.06,18,18v-1h95.19c1.26-9.03,9.19-16,18.81-16,10.49,0,19,8.28,19,18.5s-8.51,18.5-19,18.5Z"/>
        <circle class="cls-1" cx="64" cy="52" r="18"/>
        <path class="cls-1" d="M196,35c-9.62,0-17.55,6.97-18.81,16h1.81v10.73c3.11,6.08,9.55,10.27,17,10.27,10.49,0,19-8.28,19-18.5s-8.51-18.5-19-18.5Z"/>
        <path class="cls-2" d="M57,94v17s132.8,3,141.97,1c9.17-2,4.01-17,1.06-20.5-2.96-3.5-143.03,2.5-143.03,2.5Z"/>
        <rect class="cls-2" x="123" y="2" width="13" height="48"/>
        <polygon class="cls-2" points="177.19 51 82 51 82 52 82 62 179 62 179 61.73 179 51 177.19 51"/>
      </g>
      <g>
        <rect class="cls-6" x="2.5" y="2.5" width="255" height="135" rx="25.73" ry="25.73"/>
        <g>
          <line class="cls-5" x1="76.04" y1="110.28" x2="76.1" y2="94"/>
          <line class="cls-5" x1="110.1" y1="91.5" x2="110.1" y2="111.5"/>
          <line class="cls-7" x1="123.1" y1="91.5" x2="123.1" y2="90.5"/>
          <line class="cls-5" x1="124.1" y1="110.5" x2="124.1" y2="91.5"/>
          <line class="cls-5" x1="162.54" y1="90" x2="162.54" y2="112"/>
          <line class="cls-5" x1="176.54" y1="111.45" x2="176.54" y2="90.55"/>
          <path class="cls-6" d="M55.16,93.33c.94,22.17.2,15.23,1.07,16.2s137.87,2.97,143.71,1.36c4.46-1.23,11.48-19.72-8.68-20.55s-136.1,3-136.1,3Z"/>
        </g>
        <g>
          <line class="cls-7" x1="124.19" y1="3.22" x2="124.19" y2="50"/>
          <line class="cls-7" x1="135.81" y1="3.22" x2="135.81" y2="50"/>
        </g>
        <g>
          <line class="cls-7" x1="82" y1="62.41" x2="178" y2="62.41"/>
          <line class="cls-7" x1="82" y1="50.78" x2="178" y2="50.78"/>
        </g>
        <circle class="cls-4" cx="64" cy="53.47" r="18.5"/>
        <circle class="cls-4" cx="196.13" cy="53.47" r="18.5"/>
      </g>
    </g>
  </g>
</svg>