<?xml version="1.0" encoding="UTF-8"?>
<svg id="Layer_2" data-name="Layer 2" xmlns="http://www.w3.org/2000/svg" viewBox="0 0 643.66 595.42">
  <defs>
    <style>
      .cls-1 {
        fill: #faf7f8;
      }

      .cls-1, .cls-2, .cls-3, .cls-4 {
        stroke-width: 0px;
      }

      .cls-2 {
        fill: #707c88;
      }

      .cls-5 {
        stroke-width: 4px;
      }

      .cls-5, .cls-6, .cls-7 {
        fill: none;
        stroke: #000;
        stroke-miterlimit: 10;
      }

      .cls-6 {
        stroke-width: 5px;
      }

      .cls-3 {
        fill: #d00000;
      }

      .cls-4 {
        fill: #eda72d;
      }

      .cls-7 {
        stroke-width: 3px;
      }
    </style>
  </defs>
  <g id="robotbody">
    <g>
      <g>
        <path class="cls-3" d="M31.64,592.89S5.72,515.69,2.3,445.49c-1.54,55.79,5.56,109.3,29.34,147.4Z"/>
        <path class="cls-3" d="M592.77,185.76l33.09,121.7c-7.47-36.71-18.19-77.22-33.09-121.7Z"/>
        <path class="cls-3" d="M64.23,153.89s20.15,33.96,26.68,40.31l6.53,6.35v360.37s4.86,21.78,14.57,26.4l-80.37,5.57h277.83v-301.41h13.76c-29.05,0-52.6-33.63-52.6-75.11s23.55-75.11,52.6-75.11,52.6,33.63,52.6,75.11-23.55,75.11-52.6,75.11h8.9v301.41h192.12s13.43-8.86,21.52-20.04c7.54-10.42,1.02-329.69.1-372.9-.03.01-.07.04-.1.05v-4.88s.04,1.69.1,4.83c21.01-8.62,43.1-74.37,43.1-74.37,5.29,7.63,6.75,19.61,6.69,30.86.74-10.08.4-21.7-2.96-31.98l11.24-89.1s-90.26-60.23-168.09,40.61l-43.08,2.41-12.09-1.38-6.47,18.73s-97.11,2.02-108.73,0c-11.62-2.02-11.04-18.73-11.04-18.73l-10.89.99v.39l-35.32-2.5S149.23-19.11,39.23,35.89c0,0,17.45,83.82,17,93l8,25Z"/>
        <path class="cls-3" d="M8.61,372.09c6.31-36.18,14.37-76.92,21.71-110.54-7.9,31.59-16.18,70.14-21.71,110.54Z"/>
        <path class="cls-3" d="M52.65,183.46c.02.08.05.17.07.25,0,0-.33.97-.92,2.73,1.59-3.09,1.22-3.2.84-2.98Z"/>
        <path class="cls-3" d="M612.03,592.89s15.54-25.01,23.78-78.68c-8.75,51.36-23.78,78.68-23.78,78.68Z"/>
        <line class="cls-3" x1="56.23" y1="128.89" x2="62.23" y2="148.89"/>
        <path class="cls-3" d="M51.82,180.33c-.76-5.28-2.1-16.09-2.39-27.6-.02,9.68.54,19.69,2.39,27.6Z"/>
        <polygon class="cls-3" points="243.55 1.89 243.55 2.87 336.83 2.26 243.55 1.89"/>
        <path class="cls-2" d="M97.44,560.92V200.55s.07-.07-6.53-6.35c-28.68-27.31-37.5-73.2-37.5-73.2-1.81,4.15-2.89,9.42-3.48,15.14-.54,5.33-.65,11.04-.51,16.6.29,11.52,1.64,22.33,2.39,27.6.3,2.13.51,3.38.51,3.38,0,0,.16-.15.32-.25.38-.22.75-.11-.84,2.98-.7,1.36-1.77,3.28-3.41,6.04-3.21,5.39-10.24,33.17-18.08,69.07-7.34,33.62-15.4,74.36-21.71,110.54-1.57,8.98-3.02,17.68-4.34,25.91-2.34,14.7-2.78,30.89-1.97,47.48,3.43,70.2,29.34,147.4,29.34,147.4l80.37-5.57c-9.71-4.62-14.57-26.4-14.57-26.4Z"/>
        <path class="cls-2" d="M625.89,307.6l-.04-.14-33.09-121.7-.06-.23s2.87-13.88,2.96-29.08c.06-11.25-1.4-23.23-6.69-30.86,0,0-22.09,65.75-43.1,74.37.92,43.2,7.44,362.48-.1,372.9-8.09,11.18-21.52,20.04-21.52,20.04h87.77s15.04-27.32,23.78-78.68c8.25-48.42,10.9-118.21-9.91-206.61Z"/>
        <path class="cls-2" d="M545.78,200s.07-.04.1-.05c-.07-3.14-.1-4.83-.1-4.83v4.88Z"/>
        <path class="cls-2" d="M265.48,95.73c11.62,2.02,108.73,0,108.73,0l6.47-18.73,12.09,1.38V1.89l-55.94.37-93.28.62v75.12l10.89-.99s-.58,16.71,11.04,18.73Z"/>
        <polygon class="cls-2" points="323.23 291.47 309.47 291.47 309.47 587.94 309.47 590.89 332.13 590.89 332.13 587.94 332.13 291.47 323.23 291.47"/>
        <ellipse class="cls-4" cx="324.23" cy="216.36" rx="77" ry="75.11"/>
      </g>
      <g>
        <path class="cls-6" d="M509.86,77h-129.17c0,10.92-7.25,19.77-16.19,19.77h-93.87c-8.94,0-16.19-8.85-16.19-19.77h0s-119.46,0-119.46,0c-20.73,0-37.54,20.52-37.54,45.84v438.07c0,25.32,16.81,30.03,37.54,30.03h374.88c20.73,0,37.54-4.71,37.54-30.03V122.84c0-25.32-16.81-45.84-37.54-45.84Z"/>
        <g>
          <g>
            <path class="cls-6" d="M435.85,75.98s57.12-97.04,168.09-40.61c0,0-5.56,126.57-58.17,164.64"/>
            <path class="cls-5" d="M591.9,115.51c1.72,11.49,18.94,83.36-45.32,136.39"/>
            <path class="cls-6" d="M591.43,181.74s45.64,119.48,49.48,253.32c1.75,60.84-5.14,100.93-28.88,157.83l-102.17-1.94"/>
            <path class="cls-7" d="M616.3,264.44s-27.63,85.46-70.52,99.72"/>
            <path class="cls-7" d="M625.89,303.3s-37.23,86.13-80.12,100.39"/>
            <path class="cls-7" d="M546.02,541.68s24.85,16.61,34.07,0c.46-.82.48-56.53,5.75-61.93,7.09-7.29,53.56-36.34,53.56-36.34"/>
          </g>
          <g>
            <path class="cls-6" d="M207.81,75.98S150.69-21.06,39.72,35.37c0,0,5.56,126.57,58.17,164.64"/>
            <path class="cls-5" d="M51.76,115.51c-1.72,11.49-18.94,83.36,45.32,136.39"/>
            <path class="cls-6" d="M52.24,181.74S6.6,301.21,2.76,435.06c-1.75,60.84,5.14,100.93,28.88,157.83l103.34-1.94"/>
            <path class="cls-7" d="M27.37,264.44s27.63,85.46,70.52,99.72"/>
            <path class="cls-7" d="M17.77,303.3s37.23,86.13,80.12,100.39"/>
            <path class="cls-7" d="M97.65,541.68s-24.85,16.61-34.07,0c-.46-.82-.48-56.53-5.75-61.93-7.09-7.29-53.56-36.34-53.56-36.34"/>
          </g>
        </g>
        <ellipse class="cls-6" cx="323.04" cy="215.37" rx="75.82" ry="75.11"/>
        <ellipse class="cls-1" cx="323.04" cy="207.46" rx="47.88" ry="47.44"/>
        <g>
          <line class="cls-7" x1="333.75" y1="289.5" x2="333.75" y2="593.91"/>
          <line class="cls-7" x1="311.09" y1="289.5" x2="311.09" y2="593.91"/>
        </g>
        <g>
          <path class="cls-7" d="M393.63,16.67c0,14.5-33.33,26.26-74.45,26.26s-74.45-11.76-74.45-26.26"/>
          <path class="cls-7" d="M393.63,28.01c0,14.5-33.33,26.26-74.45,26.26s-74.45-11.76-74.45-26.26"/>
        </g>
        <path class="cls-6" d="M243.55,78V13.17c0-5.69,3.77-10.31,8.44-10.32l132.75-.35c4.44-.01,8.04,4.38,8.04,9.8v66.09"/>
      </g>
    </g>
  </g>
</svg>